<?xml version="1.0" encoding="utf-8"?>
<!DOCTYPE svg PUBLIC "-//W3C//DTD SVG 20010904//EN" "http://www.w3.org/TR/2001/REC-SVG-20010904/DTD/svg10.dtd">
<svg version="1.0" xmlns="http://www.w3.org/2000/svg" width="2000px" height="2000px" viewBox="0 0 2000 2000" preserveAspectRatio="xMidYMid meet">
 <g fill="#461653">
  <path d="M361 1648 c-10.3 -1.1 -16.1 -2 -18.5 -3 -1.1 -0.5 -3.1 -1.1 -4.5 -1.4 -7.9 -1.6 -12.8 -2.8 -15 -3.8 -1.4 -0.6 -3.4 -1.4 -4.5 -1.8 -21.8 -8 -40 -22.4 -53 -42 -6.5 -9.7 -10.9 -18.5 -19 -38 -1.5 -3.6 -3.3 -7.8 -4 -9.5 -4 -9.2 -9.1 -24 -17.9 -51.5 -2.6 -8 -5.1 -15.4 -5.6 -16.5 -0.5 -1.1 -1.7 -4.8 -2.7 -8.2 -0.9 -3.5 -2.1 -6.3 -2.5 -6.3 -0.4 0 -0.8 -1.1 -0.8 -2.4 0 -1.4 -0.4 -2.7 -0.9 -3 -0.5 -0.4 -1.2 -2.4 -1.6 -4.6 -0.4 -2.2 -1.1 -4.2 -1.6 -4.6 -0.5 -0.3 -0.9 -1.4 -0.9 -2.5 0 -1 -0.4 -1.9 -1 -1.9 -0.5 0 -1 -0.6 -1 -1.3 0 -1.4 -4.4 -13 -6 -15.9 -0.6 -1 -1 -2.2 -1 -2.8 0 -0.5 -1.1 -3.4 -2.5 -6.4 -1.4 -3 -2.5 -5.9 -2.5 -6.4 0 -0.5 -0.6 -2.2 -1.4 -3.8 -1.9 -3.9 -3.8 -8.6 -7.1 -16.9 -3.4 -8.8 -3.8 -9.8 -6.8 -16.5 -1.3 -3 -3.4 -8.1 -4.7 -11.3 -1.2 -3.1 -2.6 -6 -3.1 -6.3 -0.5 -0.3 -0.9 -1.3 -0.9 -2.2 0 -0.9 -0.7 -3 -1.5 -4.6 -0.8 -1.5 -1.5 -3.5 -1.5 -4.2 0 -0.8 -0.4 -1.4 -1 -1.4 -0.5 0 -1 -0.9 -1 -1.9 0 -1.1 -0.4 -2.2 -0.9 -2.5 -0.5 -0.3 -1.2 -1.7 -1.5 -3.1 -0.4 -1.4 -2.4 -6.3 -4.5 -10.8 -2.1 -4.5 -5.1 -11.3 -6.7 -15.2 -1.6 -3.8 -3.2 -7.1 -3.6 -7.3 -0.5 -0.2 -0.8 -0.9 -0.8 -1.7 0 -0.7 -1.1 -3.9 -2.5 -7.1 -4 -9.1 -4.1 -9.5 -7 -16.9 -1.4 -3.8 -3.1 -7.8 -3.6 -8.7 -0.5 -1 -0.9 -2.4 -0.9 -3.1 0 -0.7 -0.9 -3 -1.9 -5.1 -1.1 -2 -2.7 -6.3 -3.7 -9.4 -0.9 -3.1 -2.1 -6.1 -2.6 -6.7 -0.4 -0.5 -0.8 -1.7 -0.8 -2.6 0 -0.9 -0.7 -3 -1.5 -4.5 -0.8 -1.6 -1.5 -3.7 -1.5 -4.7 0 -0.9 -0.4 -2.5 -0.9 -3.5 -1.7 -3.3 -2.9 -6.7 -4.6 -12.7 -0.9 -3.3 -2.5 -8.9 -3.5 -12.5 -2.3 -7.8 -3.1 -11.2 -6.2 -25 -2.2 -10 -2.3 -12.2 -2.2 -45.5 0.2 -37.7 -0.2 -33 6 -62.5 1.6 -7.4 9.7 -26 16 -37 11.8 -20.4 27.4 -37.7 39.4 -43.7 3 -1.6 5.6 -3.1 5.8 -3.5 0.5 -1.2 19.2 -1 19.2 0.2 0 0.6 0.6 1 1.3 1 1.7 0 11.1 4.5 13.4 6.4 1 0.8 4.1 3.3 6.8 5.5 13.1 10.6 27.2 34 35 58.1 1.5 4.7 3.2 9.4 3.6 10.5 0.9 2.1 4.3 17.8 6 28 2.2 12.9 2.9 22.3 3.9 55 0.5 18.7 1.2 38.7 1.5 44.5 1 20.7 4 50.2 5.5 53.8 0.6 1.3 1 3.5 1 5 0 1.6 0.4 3.2 0.8 3.7 0.5 0.6 1.4 3.4 2.1 6.4 0.8 2.9 2 6.5 2.7 8 0.8 1.4 1.4 3.1 1.4 3.7 0 0.5 0.9 2.9 2 5.2 1.1 2.2 2 4.5 2 5.1 0 0.5 0.3 1.1 0.8 1.3 0.4 0.2 2.1 3.1 3.7 6.5 1.7 3.5 3.3 6.3 3.8 6.3 0.4 0 0.7 0.4 0.7 1 0 0.9 7.7 12.4 11.5 17 9.7 11.8 31.8 29.8 38.9 31.6 1.4 0.3 2.6 1 2.6 1.4 0 0.4 1.7 1.1 3.8 1.5 2 0.4 4.2 1 4.7 1.4 0.6 0.5 2.1 1.1 3.5 1.5 1.4 0.4 5 1.4 8 2.3 3.6 1.1 9.6 1.7 17.5 1.7 10.5 0.1 12.6 -0.2 17.1 -2.2 6.2 -2.8 12.3 -8.8 14.1 -13.9 1.5 -4.5 1.8 -28.1 0.3 -34.5 -0.5 -2.4 -1.4 -8.3 -1.9 -13.2 -0.6 -4.8 -1.4 -9.3 -1.9 -10 -0.5 -0.6 -1.3 -3.8 -1.7 -7 -0.4 -3.2 -1 -6.8 -1.5 -8 -0.4 -1.2 -1.4 -4.1 -2.1 -6.6 -0.7 -2.5 -1.6 -4.9 -1.9 -5.5 -0.4 -0.5 -1 -2.6 -1.4 -4.5 -0.6 -3.4 -3.3 -11 -6.2 -17.7 -0.8 -1.7 -1.4 -3.7 -1.4 -4.5 0 -0.8 -0.4 -1.8 -0.9 -2.3 -0.5 -0.6 -2.3 -4.6 -4.1 -9 -1.7 -4.4 -4.3 -10.9 -5.8 -14.5 -1.4 -3.6 -2.8 -6.7 -3.2 -7 -0.4 -0.3 -1.9 -3.9 -3.5 -8 -1.6 -4.1 -3.2 -7.6 -3.7 -7.8 -0.4 -0.2 -0.8 -0.8 -0.8 -1.3 0 -0.4 -1.2 -3.4 -2.6 -6.6 -1.4 -3.2 -2.9 -6.7 -3.4 -7.8 -0.5 -1.1 -1.4 -3.7 -2.1 -5.7 -0.7 -2.1 -1.6 -3.8 -1.9 -3.8 -0.3 0 -1.4 -2.6 -2.5 -5.7 -1.1 -3.2 -2.7 -7.3 -3.7 -9.1 -1 -1.8 -1.8 -3.8 -1.8 -4.4 0 -1 -4.2 -11.4 -6.1 -15 -0.5 -1 -0.9 -2.4 -0.9 -3.1 0 -0.7 -0.9 -3 -2 -5.2 -1.1 -2.1 -2.3 -5.4 -2.6 -7.2 -0.3 -1.8 -1 -3.6 -1.5 -3.9 -0.5 -0.3 -0.9 -1.4 -0.9 -2.5 0 -1 -0.4 -2.7 -0.9 -3.7 -1.9 -3.7 -3 -6.9 -3.6 -10.2 -0.7 -3.7 -2.2 -9.1 -3.6 -12.5 -0.4 -1.1 -1 -3.1 -1.3 -4.5 -0.3 -1.4 -1.2 -5.4 -2.1 -9 -0.9 -3.6 -1.8 -7.6 -2.1 -9 -0.3 -1.4 -0.9 -3.4 -1.4 -4.5 -0.4 -1.1 -1.2 -4.2 -1.8 -7 -1.9 -8.4 -4.2 -18.8 -5.2 -22.5 -0.5 -1.9 -1.4 -6.2 -2 -9.5 -0.7 -3.3 -1.6 -6.9 -2 -8 -0.5 -1.1 -1.3 -5.1 -2 -9 -0.6 -3.8 -1.6 -9 -2.1 -11.5 -0.6 -2.5 -1.2 -6.1 -1.5 -8 -0.3 -1.9 -0.8 -4.2 -1.2 -5 -0.8 -1.9 -2.8 -17 -4.3 -32.1 -0.8 -8.5 -0.8 -14.4 0 -22.5 1.5 -14.9 3.1 -24.7 4.2 -25.8 0.5 -0.6 0.9 -1.8 0.9 -2.8 0 -1 0.4 -2.6 1 -3.6 0.5 -0.9 1.7 -3.5 2.7 -5.7 2.7 -6.1 6.9 -11.9 13.1 -18.3 8 -8.1 10.9 -10.3 18.8 -14.7 6.5 -3.6 7.4 -3.9 15.9 -3.9 7.9 -0.1 16.8 1.5 18.5 3.4 0.3 0.3 2.2 1.4 4.3 2.5 9.1 4.8 29.2 28.8 36.8 44 1.4 2.8 3 5.9 3.7 7 1.6 2.9 8.2 17.3 8.2 18.1 0 0.3 0.7 2.2 1.6 4.2 4 9.1 8.4 21.3 8.4 23.3 0 0.8 0.4 1.9 0.8 2.5 0.5 0.5 1.5 3.6 2.2 6.9 0.8 3.3 1.7 6.2 2 6.5 0.4 0.3 1.2 3.9 1.9 8 0.6 4.1 1.6 9.8 2.1 12.5 1.7 8.5 3 18.4 4.5 33.5 0.7 8 1.8 18.6 2.5 23.5 1.1 9.3 2.2 18.2 4 34.5 0.6 5.2 1.7 11.8 2.5 14.5 0.8 2.8 1.9 7.9 2.4 11.5 1.2 7.6 2.5 13.9 4.1 19.5 1.1 4 3.6 14.5 4.7 19.8 0.3 1.5 0.9 2.7 1.4 2.7 0.5 0 0.9 1.1 0.9 2.4 0 1.4 0.4 2.7 0.9 3 0.5 0.3 1.2 2.3 1.5 4.3 0.8 4.4 13.4 30.3 14.7 30.3 0.5 0 0.9 0.6 0.9 1.3 0 1.7 10.1 15.1 16.4 21.7 7.5 7.8 18.4 18 19.4 18 0.5 0 1.7 0.8 2.8 1.8 2.8 2.6 12.2 8.5 16.9 10.5 2.2 1 5.3 2.5 7 3.4 4.4 2.5 18.2 3 22.6 0.9 10.3 -4.9 16.1 -15 22 -38.6 3.6 -14.4 3.6 -58.6 0 -81 -0.5 -3 -1.4 -8.4 -2 -12 -1.3 -8.2 -3.3 -17.3 -6.1 -27.5 -1.2 -4.4 -2.5 -9.2 -2.7 -10.7 -0.3 -1.6 -0.9 -2.8 -1.4 -2.8 -0.5 0 -0.9 -0.8 -0.9 -1.7 0 -2.1 -3.4 -13 -5.6 -18.2 -2.6 -6.1 -10.7 -22.6 -11.3 -23.1 -0.3 -0.3 -1.9 -3.1 -3.6 -6.2 -1.6 -3.2 -3.3 -5.8 -3.7 -5.8 -0.4 0 -1 -1 -1.3 -2.2 -0.4 -1.1 -2.9 -5.3 -5.5 -9.2 -2.6 -3.9 -6 -9.3 -7.5 -12.1 -1.6 -2.7 -3.2 -5.2 -3.5 -5.5 -0.3 -0.3 -1.4 -2.5 -2.5 -5 -1.1 -2.5 -2.2 -4.7 -2.5 -5 -0.9 -0.8 -4 -7.7 -4 -8.9 0 -0.6 -0.4 -2 -1 -3.1 -0.5 -1.1 -1.4 -2.8 -1.9 -3.8 -0.9 -1.8 -5.1 -19.1 -7.2 -29.2 -0.7 -3.5 -0.9 -13.1 -0.6 -27 0.6 -22.6 1.4 -32.1 4.1 -46 0.9 -4.7 1.9 -10 2.3 -11.8 0.3 -1.8 1 -3.5 1.4 -3.8 0.5 -0.3 0.9 -1.6 0.9 -2.9 0 -1.3 0.4 -2.6 0.9 -2.9 0.4 -0.3 1.1 -1.9 1.4 -3.5 0.4 -1.7 2.2 -6.4 4.2 -10.5 1.9 -4.1 3.5 -7.7 3.5 -8.1 0 -0.3 2.6 -4.5 5.7 -9.3 6.7 -10.2 16.2 -20.2 19.2 -20.2 1.2 0 2.1 -0.4 2.1 -1 0 -1.2 11.4 -1.3 13.8 -0.1 0.9 0.5 2.8 1.3 4.2 1.8 5.6 2.2 10.2 4.4 11.3 5.3 0.7 0.6 3.2 2.4 5.7 4 10.9 7 32.5 29.8 42.3 44.5 2.6 3.9 5.2 7.6 5.8 8.3 1.7 2.1 19.9 38.2 19.9 39.6 0 1.2 2.9 9.1 5.1 14.1 0.5 1.1 1.3 4 1.8 6.5 0.6 2.5 1.5 6.3 2.1 8.5 2.4 8.3 3.2 12.3 4.4 21 1.3 8.9 3.8 24.7 5.7 35.5 0.5 3 2 10.2 3.4 16 1.3 5.8 2.9 13.1 3.7 16.3 0.7 3.1 1.6 5.7 2 5.7 0.5 0 0.8 0.7 0.8 1.6 0 2.4 5.1 16.9 6.1 17.2 0.5 0.2 0.9 1 0.9 1.8 0 4.2 14.2 31.8 24.5 47.4 18.9 28.6 42.2 45.1 66 46.7 19.8 1.3 29.6 -6.3 35 -27.2 2.4 -8.9 2.1 -61.8 -0.5 -87.8 -3.5 -36.1 -7.7 -62.5 -13 -81.2 -2 -7 -4.1 -15.9 -4.7 -19.2 -0.3 -1.8 -0.9 -3.3 -1.3 -3.3 -0.4 0 -1 -1.5 -1.3 -3.2 -0.3 -1.8 -1.3 -6 -2.2 -9.3 -0.9 -3.3 -1.9 -7.1 -2.2 -8.5 -0.3 -1.4 -0.9 -2.7 -1.2 -3 -0.4 -0.3 -1.5 -3.6 -2.5 -7.5 -1.1 -3.8 -2.5 -9.2 -3.3 -12 -0.8 -2.7 -2.1 -7.7 -2.9 -11 -0.9 -3.3 -1.9 -6.9 -2.4 -8 -0.5 -1.1 -1.4 -4.9 -2 -8.5 -0.6 -3.6 -1.5 -9 -2 -12 -3.1 -17.7 -3.4 -22.2 -3.3 -53 0 -29.9 1 -50.6 3.2 -68.5 1.8 -14.1 3.2 -23 4 -25 0.5 -1.1 2.1 -5.8 3.6 -10.5 1.5 -4.7 3.6 -9.7 4.6 -11.2 1.1 -1.4 1.9 -3 1.9 -3.5 0 -3 14 -12.3 18.5 -12.3 1.1 0 7.4 2.5 13.5 5.3 2.6 1.2 10.1 5.8 11 6.7 0.3 0.3 2.3 1.9 4.5 3.5 2.2 1.6 4.9 3.6 6 4.5 5 3.8 28.8 28.3 34.4 35.4 6.4 8.1 15.7 21.9 19.6 29 1.2 2.3 3.1 5.7 4.1 7.6 2.7 4.7 9.4 20.9 9.4 22.6 0 0.8 0.5 1.4 1 1.4 0.6 0 1 0.6 1 1.4 0 1.7 2.9 11.5 4.1 13.8 0.5 1 0.9 2.8 0.9 4.1 0 1.3 0.4 2.7 0.9 3.3 0.4 0.5 1.4 4.3 2.1 8.4 0.7 4.1 1.7 9.5 2.2 12 2 9.5 2.8 27.2 3.7 77 0.6 33 1.3 53.1 2.1 56 0.6 2.5 1.6 7.4 2.1 11 2.3 16.4 9.5 33.7 21.5 51.5 13 19.5 30.4 35.2 47.9 43.4 14.3 6.7 15.8 7.3 26.5 9.3 8 1.5 27.4 0.3 33.5 -2 9.6 -3.6 16.8 -9.5 21.3 -17.4 2.6 -4.7 4.6 -15.9 4.5 -26.3 0 -11.9 -2.2 -54.8 -2.9 -56.5 -0.3 -0.8 -1 -4.2 -1.5 -7.5 -0.5 -3.3 -1.3 -8 -1.9 -10.5 -0.6 -2.5 -1.5 -6.7 -2.1 -9.5 -1.3 -7 -2.9 -13.7 -3.9 -16 -0.4 -1.1 -1.2 -3.8 -1.8 -6 -0.6 -2.2 -1.8 -6.3 -2.6 -9.2 -0.9 -2.8 -1.6 -5.9 -1.6 -6.7 0 -0.9 -0.4 -1.6 -1 -1.6 -0.5 0 -1 -0.8 -1 -1.8 0 -1.8 -4.1 -13.1 -6 -16.4 -0.6 -1 -1 -2.2 -1 -2.8 0 -0.5 -1.1 -3.4 -2.5 -6.4 -1.4 -3 -2.5 -5.8 -2.5 -6.1 0 -0.3 -1.4 -3.6 -3.1 -7.3 -3.2 -6.8 -5.3 -11.5 -8.4 -18.7 -4.2 -9.5 -6.1 -13.8 -12.7 -27.5 -16 -33.5 -18.8 -39.7 -18.8 -41.4 0 -0.8 -0.5 -1.8 -1 -2.1 -0.6 -0.3 -1 -1.5 -1 -2.5 0 -1 -0.3 -2 -0.8 -2.2 -0.4 -0.1 -2 -4.1 -3.5 -8.8 -1.6 -4.7 -3.2 -9.4 -3.6 -10.5 -1.3 -3 -5.2 -17.3 -6.3 -23 -3.7 -19.6 -3.7 -37.8 0.1 -57.5 1 -5.4 5.4 -20.3 6.1 -21 0.3 -0.3 1.7 -3.2 3.1 -6.5 3 -7.1 10.2 -18.3 16 -24.9 4.8 -5.4 14.3 -12.2 18.5 -13.2 1.6 -0.4 3.5 -1.1 4.1 -1.6 2.4 -1.9 27.2 0.8 29.8 3.3 0.5 0.5 1.7 0.9 2.7 0.9 1 0 1.8 0.3 1.8 0.8 0 0.4 1.8 1.5 4 2.5 4.3 1.8 6.9 3.9 16.8 13.2 14.9 14 22.9 30.7 28.1 58.5 2.4 13.4 3.3 26.1 4.2 64.5 0.9 38.8 1.3 46.1 3.8 66.5 1.7 13.9 4.2 27.5 6.1 32.5 0.4 1.1 2 5.8 3.5 10.5 8.2 25.5 26.2 49.8 42.7 57.7 11.3 5.5 18 6.6 35.1 6.1 8.4 -0.3 16.3 -1 17.7 -1.6 1.4 -0.5 4.5 -1.6 7 -2.3 5.7 -1.7 15.1 -7.1 20.1 -11.6 8 -7.3 16.9 -23.8 16.9 -31.4 0 -1.5 0.5 -3.1 1 -3.4 0.6 -0.3 1 -5.2 1 -11 0 -5.8 -0.4 -10.7 -1 -11 -0.5 -0.3 -1 -2.5 -1 -4.9 0 -3.8 -2.8 -18.3 -4.5 -23.1 -4.1 -11.8 -15.6 -33.3 -20.7 -38.9 -1 -1.1 -1.8 -2.3 -1.8 -2.7 0 -0.3 -1.2 -2.2 -2.7 -4.1 -1.6 -1.9 -3.7 -4.7 -4.8 -6.3 -1.1 -1.5 -3 -4 -4.3 -5.5 -1.2 -1.5 -2.2 -3.1 -2.2 -3.4 0 -0.3 -1.6 -2.9 -3.6 -5.7 -3.3 -4.8 -17.3 -31.6 -20.1 -38.4 -2.6 -6.6 -6.3 -18.7 -8.3 -27.1 -1.1 -4.9 -2.6 -10.9 -3.3 -13.4 -2.1 -7.9 -1.4 -36.5 1.2 -50.5 1.3 -6.6 2.7 -12.9 3.1 -14 0.4 -1.1 1.3 -4 2 -6.5 1.4 -5 3.8 -12.5 5 -15.5 1.7 -4.2 10.4 -22 11 -22.5 0.4 -0.3 2.2 -3.3 4.1 -6.7 1.8 -3.5 3.7 -6.3 4.1 -6.3 0.4 0 1.4 -1.2 2.2 -2.7 1.5 -2.8 7.2 -9.1 11.7 -12.8 15.6 -13.1 43.7 -4.9 61.4 17.9 5.8 7.5 8.5 11.6 12.5 19.4 2.2 4.3 4 8.2 4 8.5 0 0.4 0.9 2.6 1.9 5 1.1 2.3 2.7 6.7 3.6 9.7 0.9 3 2 6.9 2.5 8.6 0.6 1.7 1 3.8 1 4.7 0 1 0.4 2.5 0.9 3.5 0.6 0.9 1.7 5.8 2.6 10.7 0.9 5 2.1 11.5 2.6 14.5 0.6 3 1.4 7.8 1.9 10.5 0.5 2.8 1.3 7.4 1.9 10.3 0.6 3 1.1 6.6 1.1 8.2 0 1.6 0.5 3.2 1 3.5 0.6 0.3 1 1.8 1 3.3 0 3.2 4.7 23 6 25.4 0.6 1 1 2.7 1 3.8 0 1.1 1.1 5.2 2.4 9.2 1.3 4 3.1 10 4 13.3 0.9 3.3 2.3 7.4 3.1 9 0.7 1.7 1.6 4.1 2 5.5 0.3 1.4 1.5 4.3 2.5 6.5 1 2.2 2.5 5.8 3.5 8 12.1 29.2 37.4 57.5 59.4 66.3 6.3 2.6 8.2 2.7 13.6 0.8 6.1 -2.2 10.8 -6.7 14.5 -14.2 3.4 -6.9 3.4 -7 3.4 -20.4 -0.1 -13.9 -0.9 -21.8 -2.5 -23.5 -0.5 -0.5 -0.9 -2.1 -0.9 -3.6 0 -1.5 -0.4 -3 -0.9 -3.3 -0.4 -0.3 -1.1 -3.1 -1.5 -6.2 -0.3 -3.1 -1.2 -6.6 -1.8 -7.8 -0.6 -1.1 -1.3 -3 -1.4 -4.1 -0.4 -3 -2.1 -10.5 -3.4 -15 -0.6 -2.2 -1.4 -5 -1.7 -6.2 -0.3 -1.3 -0.9 -2.3 -1.4 -2.3 -0.5 0 -0.9 -0.9 -0.9 -2 0 -2.4 -2.5 -10.2 -5 -15.5 -1 -2.2 -2.2 -5.1 -2.6 -6.5 -0.4 -1.4 -2 -5.3 -3.5 -8.8 -1.6 -3.4 -2.9 -6.7 -2.9 -7.2 0 -0.6 -0.3 -1 -0.8 -1 -0.4 0 -1.3 -1.5 -2.1 -3.2 -2.8 -6.7 -4.5 -10.3 -5.1 -10.8 -0.3 -0.3 -2.3 -3.4 -4.4 -7 -2.2 -3.6 -6.3 -9.9 -9.2 -14 -12.6 -18.3 -22.5 -38.5 -25.4 -52.1 -1.8 -7.9 -0.1 -46.1 2.1 -48.4 0.5 -0.5 0.9 -2.1 0.9 -3.7 0 -1.5 0.4 -3.7 1 -5 0.5 -1.3 1.7 -5.1 2.7 -8.5 0.9 -3.5 2.1 -6.3 2.5 -6.3 0.4 0 0.8 -0.7 0.8 -1.5 0 -3.3 9.3 -17.8 15.8 -24.7 9.6 -10.1 20.1 -13.4 36.2 -11.1 10.5 1.4 14.1 2.4 20.5 5.4 5.8 2.7 15.1 8.5 17.9 11.1 1.1 1 2.3 1.8 2.8 1.8 0.4 0 4 3 7.9 6.7 13.5 12.8 26.9 31.9 36.9 52.9 3.3 6.9 6 12.9 6 13.5 0 0.5 0.4 1.7 1 2.7 1.8 3.4 7 20.3 10 33.2 1.7 7.1 6.8 24.5 8.1 27.5 0.4 1.1 1.5 4 2.3 6.5 2.8 8.3 4.7 13.3 6.6 17.4 1 2.3 3 6.9 4.4 10.3 7.6 18.2 19.1 41.3 20.9 42.1 0.4 0.2 0.7 0.9 0.7 1.7 0 1.9 14 21.5 21.3 29.8 11.6 13.3 15.1 16.8 22.1 22.5 3.9 3.1 8 6.5 9 7.4 1.1 1 2.4 1.8 2.9 1.8 0.4 0 2.3 1.1 4 2.4 5.1 3.9 19.5 10.3 28.2 12.6 8.4 2.3 17.4 2.2 23.3 -0.2 10.4 -4.2 14 -6.5 20.3 -12.7 6.8 -6.7 15.9 -20 15.9 -23.2 0 -1 0.3 -1.9 0.8 -2.1 1.2 -0.5 5 -12.9 5.8 -18.8 0.4 -3 1.2 -6.1 1.8 -6.9 1.5 -1.9 2 -33.7 0.6 -43.6 -0.6 -4.4 -1.5 -11.6 -2 -16 -0.9 -7.5 -2.2 -13.4 -4 -18 -0.5 -1.1 -1.4 -3.6 -2.2 -5.5 -1.9 -5.1 -13.9 -28.6 -17.9 -35 -1.9 -3.1 -7 -9.4 -11.5 -14 -11.4 -11.9 -19.3 -20.9 -23.4 -26.4 -1.9 -2.6 -4.7 -6.2 -6.2 -8.1 -1.6 -1.8 -2.8 -3.6 -2.8 -3.9 0 -2.6 -50 -53.9 -63.5 -65.1 -15.5 -12.9 -23.6 -21.2 -26.7 -27.5 -1.3 -2.5 -2.6 -4.6 -3.1 -4.8 -1 -0.5 -0.9 -24 0.2 -24.4 0.5 -0.1 1.1 -2.1 1.4 -4.3 1.2 -10.1 7 -19 14.8 -22.8 1.9 -0.9 6.2 -4.5 9.7 -8 12.3 -12.5 22 -15.4 45.4 -13.7 11.5 0.8 12.8 1.1 20.3 4.8 7 3.6 17.8 11.5 40.1 29.5 3.2 2.7 13.6 10 22.9 16.4 28.4 19.4 41.7 31.8 54.3 50.8 3.7 5.5 7 10.2 7.3 10.5 0.3 0.3 1.7 2.5 3.1 5 1.4 2.5 4.2 7.4 6.3 11 6.5 11.2 8.5 15.1 16.4 30.5 7.1 14.1 8.8 17.6 14.8 31.5 1.3 3 2.8 6.3 3.3 7.2 0.6 1 1 2.2 1 2.8 0 0.6 0.9 2.9 1.9 5.3 1.1 2.3 3.1 8.3 4.6 13.2 1.5 5 3 10.1 3.5 11.5 0.4 1.4 1.3 4.5 2 7 0.7 2.5 1.8 6.3 2.5 8.5 0.7 2.2 2.3 7.4 3.5 11.5 1.2 4.1 2.6 8.4 3 9.5 0.7 1.7 3.1 11 7 26.5 2.4 9.9 3 19.2 3 48.6 0 37 -0.9 46.5 -6.9 75.4 -1.2 5.8 -2.6 11.6 -3 13 -0.5 1.4 -1.3 4.3 -1.9 6.5 -4.5 16.6 -17.1 50.3 -24 64 -5.1 10.2 -26.8 48.8 -32 57 -28.2 44.2 -56.7 71.3 -96.2 91.2 -4.7 2.4 -8.8 4.3 -9.2 4.3 -0.7 0 -3.5 1.2 -18.3 8 -3.8 1.8 -11.3 5 -16.5 7.2 -5.2 2.2 -11.7 5 -14.5 6.3 -2.7 1.2 -6.1 2.6 -7.5 3 -1.4 0.4 -4.3 1.6 -6.5 2.5 -2.2 1 -15.9 6.6 -30.5 12.5 -14.6 6 -29.3 12.1 -32.8 13.7 -3.4 1.5 -6.4 2.8 -6.6 2.8 -0.2 0 -6.8 3.1 -14.7 6.9 -15 7.1 -19 8.9 -24.9 11.1 -1.9 0.7 -3.9 1.7 -4.4 2.2 -0.6 0.4 -1.6 0.8 -2.3 0.8 -0.7 0 -3.7 1.1 -6.7 2.5 -3 1.4 -5.7 2.5 -6 2.5 -0.3 0 -2.9 1.1 -5.8 2.4 -7.4 3.4 -42.5 17.7 -52.8 21.6 -4.7 1.7 -9.4 3.5 -10.5 4 -1.1 0.4 -6.5 2.5 -12 4.5 -5.5 2 -10.9 4 -12 4.5 -1.1 0.5 -4.2 1.6 -7 2.5 -2.7 1 -5.9 2.1 -7 2.5 -1.8 0.8 -6.9 2.6 -22.5 8.2 -3 1.1 -6.4 2.4 -7.5 2.8 -1.1 0.5 -5.6 2 -10 3.5 -4.4 1.4 -8.9 3 -10 3.5 -1.1 0.4 -6.3 2.5 -11.5 4.5 -5.2 2 -10.4 4.1 -11.5 4.5 -1.1 0.5 -5.4 2 -9.5 3.5 -4.1 1.5 -8.4 3.1 -9.5 3.5 -1.1 0.5 -4.8 1.9 -8.3 3 -7.8 2.6 -13.5 4.7 -18.9 7.1 -2.4 1 -4.5 1.9 -4.8 1.9 -0.6 0 -4.6 1.7 -16.3 7.1 -3.5 1.6 -6.5 2.9 -6.8 2.9 -0.6 0 -11.6 5.2 -34.4 16.3 -10.2 4.9 -21 10.1 -24 11.4 -3 1.4 -9.2 4.3 -13.7 6.4 -4.6 2.2 -8.5 3.9 -8.8 3.9 -0.2 0 -3 1.2 -6.2 2.6 -6.6 3 -5.1 2.3 -25.3 10.4 -8.5 3.4 -16.9 6.8 -18.6 7.6 -1.7 0.7 -7.2 2.9 -12.1 4.8 -5 1.9 -11.1 4.3 -13.4 5.4 -2.4 1 -6 2.5 -7.9 3.2 -1.9 0.7 -6.6 2.8 -10.5 4.5 -3.8 1.7 -9.9 4.4 -13.5 6 -7 3.1 -109.8 54.7 -127 63.7 -27.9 14.7 -33 17.4 -39.3 21 -3.8 2.1 -7 3.8 -7.2 3.8 -0.2 0 -2.6 1.3 -5.3 2.9 -2.6 1.5 -6.8 4 -9.3 5.3 -2.4 1.4 -14.3 8.2 -26.4 15 -30.3 17.2 -33.2 18.9 -39.8 23.1 -3.1 2 -6 3.7 -6.3 3.7 -0.3 0 -1.8 0.8 -3.2 1.9 -1.5 1 -4.7 2.9 -7.2 4.3 -4.1 2.3 -16.7 9.7 -31 18.3 -3 1.8 -7.1 4.2 -9 5.3 -1.9 1.1 -6.4 3.6 -10 5.7 -3.6 2.1 -7.9 4.6 -9.7 5.6 -1.7 1 -5 2.9 -7.2 4.3 -2.2 1.5 -4.2 2.6 -4.5 2.6 -1.2 0 -32.9 19.9 -63.1 39.5 -10 6.5 -52.1 33.3 -55.7 35.4 -1.5 0.9 -5.3 3.2 -8.5 5.2 -9.9 6.2 -29.7 18.1 -32.8 19.9 -12.8 7.2 -24.4 13.2 -35.5 18.4 -3.1 1.4 -6.5 3.4 -7.6 4.4 -1.1 1.1 -7.4 4.8 -14 8.2 -6.5 3.5 -15.3 8.3 -19.4 10.8 -23.8 14.1 -40.4 22.2 -56.5 27.4 -3.3 1 -6.9 2.3 -8 2.7 -1.1 0.5 -5.3 2.1 -9.2 3.6 -4 1.5 -7.3 3 -7.3 3.5 0 0.4 -1.1 1.1 -2.5 1.4 -1.3 0.3 -5.1 2.2 -8.4 4.1 -3.3 1.9 -6.2 3.5 -6.5 3.5 -0.4 0 -2.5 0.8 -4.9 1.9 -2.3 1 -5.5 2.4 -7.2 3.1 -3.6 1.5 -28.3 2.2 -39.5 1z"/>
 </g>
 <g fill="#965fa5">
  <path d="M306.4 1566.9 c-1.8 -0.5 -4.8 -2.8 -6.9 -5 l-3.8 -4.2 0.5 -9.6 c0.9 -16.1 6.3 -25.8 16.3 -29.1 8.9 -2.9 21.8 1.4 31 10.5 7.7 7.6 9.3 15 5.1 24.1 -2.7 5.9 -8.2 10.7 -14.5 12.9 -5 1.7 -22.4 1.9 -27.7 0.4z m29.8 -14.6 c3.2 -2.9 1.5 -7.3 -3.2 -8 -3.8 -0.6 -5.7 5.7 -2.5 8.1 2.6 2 3.4 2 5.7 -0.1z"/>
  <path d="M471.4 1511.9 c-1.6 -1.7 -1.6 -2.2 -0.4 -2.9 0.8 -0.6 1.1 -1 0.5 -1 -1.4 0 1.7 -2 3.2 -2 0.7 0 2 1.1 2.9 2.5 3 4.6 -2.4 7.6 -6.2 3.4z"/>
  <path d="M249 1421.1 c-10.2 -5.4 -10.6 -19.1 -0.8 -25.1 4.1 -2.5 9.2 -2.6 13.7 -0.2 10.3 5.2 10.6 19.1 0.5 24.9 -4.8 2.8 -8.8 2.9 -13.4 0.4z"/>
  <path d="M562.5 1399.2 c-6 -2.9 -12.1 -8.6 -14.8 -13.9 -6.1 -11.8 -3.3 -27.7 6.5 -37 6.4 -6.1 11.2 -7.8 21.8 -7.8 7.9 0 10.2 0.4 13.8 2.3 5.6 3 11.5 9.1 14.4 15 3.3 6.8 3.3 19.7 0 26.5 -7.7 15.5 -26.3 22.2 -41.7 14.9z m9.2 -36.4 c6.4 -6 -2.2 -15.3 -9.5 -10.2 -1.5 1.1 -2.2 2.5 -2.2 5 0 6.6 6.9 9.7 11.7 5.2z"/>
  <path d="M947.7 1226.6 c-12.7 -4.6 -18.9 -19.5 -13 -31.1 8.8 -17 33.4 -15.9 40.8 1.7 7.1 17.1 -10.3 35.6 -27.8 29.4z m10.9 -18.9 c0.3 -0.2 0.8 -2.1 1.1 -4.1 0.5 -3 0.1 -4.2 -1.7 -6.1 -4.6 -4.9 -12 -1.9 -12 4.7 0 4.9 2.6 7.1 7.8 6.5 2.4 -0.2 4.5 -0.7 4.8 -1z"/>
  <path d="M659.1 1214.4 c-4 -3.3 -5.5 -8.6 -3.7 -12.8 5.3 -12.4 22.6 -9.3 22.6 4.1 0 9.7 -11.4 15 -18.9 8.7z"/>
  <path d="M181 1181.4 c-7.6 -2 -12.9 -5.4 -18.8 -11.9 -7.1 -7.7 -9.6 -14.5 -9.6 -26 0 -12.6 2.5 -18.8 11.3 -27.6 5 -4.9 8.1 -7.1 12.6 -8.9 24.3 -9.1 49.4 5.1 53.8 30.4 2.1 12.5 -1.8 24.2 -11.2 33.6 -10.6 10.6 -23.9 14.2 -38.1 10.4z m11.8 -27.8 c1.5 -1.3 2 -4.1 1.3 -7.8 -0.3 -2.2 -4.4 -4.8 -7.3 -4.8 -7.3 0.1 -11.4 8.4 -6.7 13.1 1.7 1.7 3 2 6.6 1.6 2.4 -0.2 5.2 -1.2 6.1 -2.1z"/>
  <path d="M1070 1145.8 c-5.3 -2.7 -8 -6.2 -8.9 -11.4 -2 -10.8 5.6 -20.4 16.1 -20.4 18.4 0 24 24.6 7.4 32.1 -5.4 2.5 -9.3 2.4 -14.6 -0.3z m14.4 -15 c1.3 -2.1 -0.2 -6.6 -2.6 -8.2 -2.2 -1.4 -4.7 0 -6.8 3.7 -1.3 2.3 -1.3 2.8 0.5 4.7 2.3 2.5 7.2 2.4 8.9 -0.2z"/>
  <path d="M1268.4 1046.6 c-2.4 -2.4 -3.4 -4.3 -3.4 -6.6 0 -4.1 5.6 -10 9.4 -10 10.5 0 14.6 13.9 5.5 18.6 -4.5 2.3 -7.8 1.7 -11.5 -2z"/>
  <path d="M367.1 1038.3 c-3.8 -0.7 -12.7 -10.2 -14 -14.8 -3.1 -11.5 1.7 -22.2 12.3 -27.1 9.1 -4.2 17.4 -2.7 24.8 4.7 6.3 6.3 8.5 15.1 5.7 22.6 -4.3 11.6 -15.2 17.1 -28.8 14.6z m13.9 -14.6 c2.1 -1 2.5 -1.9 2.4 -5.2 -0.4 -9.5 -13.4 -10 -13.4 -0.5 0 5.7 5.4 8.5 11 5.7z"/>
  <path d="M1445.9 972.6 c-8.8 -3.2 -13.3 -9.2 -13.3 -18.1 -0.1 -16.3 19.3 -24.6 31.8 -13.6 6.5 5.7 7.5 18 1.9 24.8 -5.4 6.8 -13.4 9.5 -20.4 6.9z m13 -16.2 c2.7 -3.5 1.1 -7.4 -3 -7.4 -3.4 0 -4.6 3 -3 7.3 1.3 3.4 3.4 3.4 6 0.1z"/>
  <path d="M1640.1 964.4 c-16.9 -4.5 -30.1 -18 -34.6 -35.1 -5.6 -21.5 5.2 -44.7 25.5 -54.6 20.5 -10 42.4 -5.4 58.2 12.1 12.7 14.1 14.9 37.2 5.3 54.5 -10.6 18.9 -33.7 28.7 -54.4 23.1z m26.7 -49.6 c3.2 -3.2 -0.6 -11.8 -5 -11.3 -1.3 0.1 -2.6 0.3 -3 0.4 -0.4 0 -1.3 1.9 -1.9 4.1 -1.1 3.5 -1 4.2 0.6 6 2 2.2 7.4 2.7 9.3 0.8z"/>
  <path d="M577.8 911.9 c-3.3 -1.9 -4.1 -4.7 -2.2 -7.8 2 -3.5 4.7 -4.4 8 -2.9 2.4 1.1 4.5 6.1 3.7 8.4 -0.5 1.2 -4.7 3.4 -6.6 3.4 -0.7 0 -2 -0.5 -2.9 -1.1z"/>
  <path d="M859.1 799 c-7.9 -3.4 -12.1 -9.7 -12.1 -18.3 0 -17.3 22 -25.2 33.3 -11.8 9.9 11.8 2.1 30 -13.1 30.8 -3.2 0.1 -6.8 -0.2 -8.1 -0.7z m10.9 -11 c2.5 -2.5 2.5 -5 0 -7.8 -3.6 -3.8 -6.8 -3.9 -10.1 -0.4 -3.3 3.5 -3.5 4.9 -1.3 8 2 2.9 8.5 3.1 11.4 0.2z"/>
  <path d="M1250.5 655.6 c-7.2 -3.6 -8.6 -6.6 -8.7 -18.6 0 -11.9 2.2 -17.6 8.2 -21 4.1 -2.3 5.6 -2.5 15.7 -2.5 l11.2 0 3.6 3.5 c5.3 5.1 7.8 11.1 7.9 18.8 l0.1 6.4 -4.8 4.4 c-7.1 6.4 -14.1 9.5 -22.9 10 -5.2 0.3 -8.2 0 -10.3 -1z m21.9 -27.6 c5.3 -2 2.3 -13 -3.5 -13 -2.8 0 -6.1 1.9 -5.4 3.1 0.4 0.5 0.1 0.9 -0.4 0.9 -0.6 0 -1.1 1.5 -1.1 3.4 0 5.4 4.5 7.9 10.4 5.6z"/>
  <path d="M1454.1 595 c-7.5 -3.2 -13.1 -11.5 -13.1 -19.6 0 -5.8 4.4 -13.9 9.2 -17.2 4.6 -3 13.5 -4.1 19.1 -2.3 4.8 1.6 11.3 8.9 12.7 14.2 2.3 8.4 -1.3 17.8 -8.7 22.9 -2.8 1.9 -5.1 2.5 -10.2 2.7 -3.6 0.2 -7.7 -0.2 -9 -0.7z m17.3 -7.1 c1.3 -1.9 1.3 -2.4 0 -4.4 -2.1 -3.2 -5.6 -2.7 -6.9 0.8 -0.8 2.4 -0.6 3.1 1 4.3 2.6 1.9 4.1 1.8 5.9 -0.7z"/>
  <path d="M1716.2 491.9 c-5.4 -2.7 -11 -9.2 -11.8 -13.6 -2.4 -12.6 6.6 -23.6 19.2 -23.7 10.4 -0.1 19.4 8.9 19.4 19.3 0 14 -14.9 24.1 -26.8 18z m19.8 -17.4 c1 -1.2 1 -1.8 0 -3 -2.5 -3 -6.1 -0.7 -4.6 3 0.3 0.8 1.2 1.5 1.9 1.5 0.8 0 2 -0.7 2.7 -1.5z"/>
 </g>
</svg>